<svg width="46" height="46" viewBox="0 0 46 46" fill="none" xmlns="http://www.w3.org/2000/svg">
<g filter="url(#filter0_dd_9_178)">
<path d="M26.4424 7.92731C25.9957 7.46593 25.4607 7.09906 24.8694 6.84852C24.278 6.59798 23.6423 6.46887 23.0001 6.46887C22.3579 6.46887 21.7222 6.59798 21.1308 6.84852C20.5395 7.09906 20.0045 7.46593 19.5578 7.92731L10.3597 17.4263C9.8326 17.9706 9.47802 18.6606 9.34002 19.4081C8.22315 25.4995 8.14085 31.7355 9.0966 37.8541L9.43393 40.02C9.54127 40.7042 10.1316 41.2083 10.8235 41.2083H17.2501C17.5043 41.2083 17.748 41.1073 17.9277 40.9276C18.1075 40.7479 18.2084 40.5041 18.2084 40.25V26.8333H27.7918V40.25C27.7918 40.5041 27.8927 40.7479 28.0725 40.9276C28.2522 41.1073 28.4959 41.2083 28.7501 41.2083H35.1767C35.5117 41.2082 35.8356 41.0884 36.09 40.8705C36.3445 40.6526 36.5127 40.351 36.5644 40.02L36.9036 37.8541C37.8592 31.7355 37.7769 25.4995 36.6602 19.4081C36.5228 18.6612 36.1673 17.9716 35.6386 17.4263L26.4424 7.92731Z" fill="#FABB18"/>
</g>
<defs>
<filter id="filter0_dd_9_178" x="8.43628" y="6.46887" width="32.1274" height="36.7394" filterUnits="userSpaceOnUse" color-interpolation-filters="sRGB">
<feFlood flood-opacity="0" result="BackgroundImageFix"/>
<feColorMatrix in="SourceAlpha" type="matrix" values="0 0 0 0 0 0 0 0 0 0 0 0 0 0 0 0 0 0 127 0" result="hardAlpha"/>
<feOffset dx="3" dy="2"/>
<feComposite in2="hardAlpha" operator="out"/>
<feColorMatrix type="matrix" values="0 0 0 0 0.933333 0 0 0 0 0.152941 0 0 0 0 0.145098 0 0 0 1 0"/>
<feBlend mode="normal" in2="BackgroundImageFix" result="effect1_dropShadow_9_178"/>
<feColorMatrix in="SourceAlpha" type="matrix" values="0 0 0 0 0 0 0 0 0 0 0 0 0 0 0 0 0 0 127 0" result="hardAlpha"/>
<feOffset dx="2" dy="1"/>
<feComposite in2="hardAlpha" operator="out"/>
<feColorMatrix type="matrix" values="0 0 0 0 0.941176 0 0 0 0 0.231373 0 0 0 0 0.14902 0 0 0 1 0"/>
<feBlend mode="normal" in2="effect1_dropShadow_9_178" result="effect2_dropShadow_9_178"/>
<feBlend mode="normal" in="SourceGraphic" in2="effect2_dropShadow_9_178" result="shape"/>
</filter>
</defs>
</svg>
