<svg width="46" height="46" viewBox="0 0 46 46" fill="none" xmlns="http://www.w3.org/2000/svg">
<g filter="url(#filter0_dd_9_176)">
<path d="M27.4242 3.79663C25.9783 3.47377 24.5027 3.30254 23.0213 3.28571C21.5033 3.30213 20.0264 3.47463 18.579 3.79663C18.2704 3.86567 17.9911 4.02949 17.7801 4.26516C17.5692 4.50082 17.4373 4.79654 17.4027 5.11092L17.0594 8.19456C17.0102 8.62951 16.8598 9.04689 16.6204 9.41331C16.3809 9.77972 16.059 10.085 15.6804 10.3047C15.3019 10.5244 14.8771 10.6525 14.4402 10.6786C14.0032 10.7047 13.5662 10.6282 13.1642 10.4551L10.3385 9.21149C10.0516 9.08522 9.73267 9.05123 9.42568 9.11421C9.1187 9.1772 8.83888 9.33405 8.62496 9.56306C6.58133 11.7498 5.05974 14.3712 4.17446 17.2303C4.08119 17.5313 4.08391 17.8538 4.18223 18.1532C4.28055 18.4526 4.46961 18.714 4.72317 18.9011L7.23182 20.7493C7.58468 21.009 7.87154 21.348 8.06925 21.7389C8.26695 22.1299 8.36996 22.5619 8.36996 23C8.36996 23.4381 8.26695 23.8701 8.06925 24.2611C7.87154 24.652 7.58468 24.991 7.23182 25.2507L4.72317 27.1038C4.46994 27.2908 4.28109 27.5519 4.18278 27.851C4.08448 28.15 4.08157 28.4722 4.17446 28.773C5.05791 31.6346 6.5784 34.2588 8.62168 36.4484C8.8354 36.6777 9.11513 36.8349 9.42212 36.8982C9.72912 36.9614 10.0482 36.9277 10.3352 36.8016L13.174 35.5547C13.5737 35.3801 14.0089 35.302 14.4444 35.3265C14.8798 35.3511 15.3035 35.4776 15.681 35.696C16.4466 36.1396 16.9575 36.9199 17.0577 37.8005L17.3995 40.8841C17.4338 41.1943 17.5629 41.4863 17.7693 41.7203C17.9757 41.9544 18.2493 42.119 18.5527 42.1918C21.476 42.8888 24.5222 42.8888 27.4455 42.1918C27.749 42.119 28.0225 41.9544 28.2289 41.7203C28.4353 41.4863 28.5645 41.1943 28.5988 40.8841L28.9405 37.7956C28.9869 37.3604 29.1353 36.9422 29.3737 36.5752C29.6121 36.2081 29.9338 35.9025 30.3125 35.6832C30.6913 35.4639 31.1165 35.337 31.5535 35.313C31.9905 35.289 32.427 35.3684 32.8275 35.5448L35.6647 36.7918C35.9517 36.9178 36.2708 36.9516 36.5778 36.8883C36.8848 36.825 37.1645 36.6678 37.3782 36.4386C39.4204 34.2513 40.9408 31.63 41.8255 28.7713C41.9187 28.4704 41.916 28.1478 41.8177 27.8484C41.7194 27.549 41.5303 27.2877 41.2767 27.1006L38.7714 25.2507C38.4184 24.9912 38.1315 24.6523 37.9336 24.2614C37.7358 23.8705 37.6326 23.4385 37.6324 23.0004C37.6323 22.5623 37.7351 22.1303 37.9327 21.7392C38.1302 21.3482 38.417 21.0091 38.7697 20.7493L41.2751 18.8978C41.5281 18.7106 41.7166 18.4494 41.8146 18.1504C41.9126 17.8513 41.9152 17.5292 41.8222 17.2286C40.9375 14.3696 39.4164 11.7483 37.3733 9.56142C37.1594 9.33241 36.8796 9.17556 36.5726 9.11257C36.2656 9.04959 35.9466 9.08358 35.6598 9.20985L32.8341 10.4535C32.4825 10.61 32.1018 10.6906 31.717 10.6901C31.0288 10.6888 30.3652 10.4336 29.8535 9.97344C29.3418 9.51325 29.0179 8.88042 28.9438 8.19621L28.5988 5.10928C28.5644 4.79555 28.4329 4.5004 28.2226 4.26506C28.0123 4.02972 27.7321 3.86595 27.4242 3.79663ZM23 29.5714C21.2571 29.5714 19.5856 28.8791 18.3533 27.6467C17.1209 26.4143 16.4285 24.7428 16.4285 23C16.4285 21.2571 17.1209 19.5857 18.3533 18.3533C19.5856 17.1209 21.2571 16.4286 23 16.4286C24.7428 16.4286 26.4143 17.1209 27.6467 18.3533C28.879 19.5857 29.5714 21.2571 29.5714 23C29.5714 24.7428 28.879 26.4143 27.6467 27.6467C26.4143 28.8791 24.7428 29.5714 23 29.5714Z" fill="#FABB18"/>
</g>
<defs>
<filter id="filter0_dd_9_176" x="4.10645" y="3.28571" width="40.7871" height="41.4289" filterUnits="userSpaceOnUse" color-interpolation-filters="sRGB">
<feFlood flood-opacity="0" result="BackgroundImageFix"/>
<feColorMatrix in="SourceAlpha" type="matrix" values="0 0 0 0 0 0 0 0 0 0 0 0 0 0 0 0 0 0 127 0" result="hardAlpha"/>
<feOffset dx="3" dy="2"/>
<feComposite in2="hardAlpha" operator="out"/>
<feColorMatrix type="matrix" values="0 0 0 0 0.933333 0 0 0 0 0.152941 0 0 0 0 0.145098 0 0 0 1 0"/>
<feBlend mode="normal" in2="BackgroundImageFix" result="effect1_dropShadow_9_176"/>
<feColorMatrix in="SourceAlpha" type="matrix" values="0 0 0 0 0 0 0 0 0 0 0 0 0 0 0 0 0 0 127 0" result="hardAlpha"/>
<feOffset dx="2" dy="1"/>
<feComposite in2="hardAlpha" operator="out"/>
<feColorMatrix type="matrix" values="0 0 0 0 0.941176 0 0 0 0 0.231373 0 0 0 0 0.14902 0 0 0 1 0"/>
<feBlend mode="normal" in2="effect1_dropShadow_9_176" result="effect2_dropShadow_9_176"/>
<feBlend mode="normal" in="SourceGraphic" in2="effect2_dropShadow_9_176" result="shape"/>
</filter>
</defs>
</svg>
